<svg width="12" height="14" viewBox="0 0 12 14" fill="none" xmlns="http://www.w3.org/2000/svg">
<path d="M5.99996 13.3333C4.52218 13.3333 3.26385 12.8222 2.22496 11.8C1.18607 10.7777 0.666626 9.53329 0.666626 8.06663C0.666626 7.36663 0.802737 6.69718 1.07496 6.05829C1.34718 5.4194 1.73329 4.85552 2.23329 4.36663L5.99996 0.666626L9.76663 4.36663C10.2666 4.85552 10.6527 5.4194 10.925 6.05829C11.1972 6.69718 11.3333 7.36663 11.3333 8.06663C11.3333 9.53329 10.8138 10.7777 9.77496 11.8C8.73607 12.8222 7.47774 13.3333 5.99996 13.3333ZM5.99996 12C7.11107 12 8.05551 11.6194 8.83329 10.8583C9.61107 10.0972 9.99996 9.16663 9.99996 8.06663C9.99996 7.5444 9.89996 7.04718 9.69996 6.57496C9.49996 6.10274 9.21107 5.68885 8.83329 5.33329L5.99996 2.53329L3.16663 5.33329C2.78885 5.68885 2.49996 6.10274 2.29996 6.57496C2.09996 7.04718 1.99996 7.5444 1.99996 8.06663C1.99996 9.16663 2.38885 10.0972 3.16663 10.8583C3.9444 11.6194 4.88885 12 5.99996 12Z" fill="#1C1B1F"/>
</svg>
