<svg width="16" height="13" viewBox="0 0 16 13" fill="none" xmlns="http://www.w3.org/2000/svg">
<path d="M2.66663 5C2.47774 5 2.3194 4.93611 2.19163 4.80834C2.06385 4.68056 1.99996 4.52222 1.99996 4.33334C1.99996 4.14445 2.06385 3.98611 2.19163 3.85834C2.3194 3.73056 2.47774 3.66667 2.66663 3.66667H4.66663C5.03329 3.66667 5.34718 3.79722 5.60829 4.05834C5.8694 4.31945 5.99996 4.63334 5.99996 5H2.66663ZM3.99996 11C4.55552 11 5.02774 10.8056 5.41663 10.4167C5.80551 10.0278 5.99996 9.55556 5.99996 9C5.99996 8.44445 5.80551 7.97222 5.41663 7.58334C5.02774 7.19445 4.55552 7 3.99996 7C3.4444 7 2.97218 7.19445 2.58329 7.58334C2.1944 7.97222 1.99996 8.44445 1.99996 9C1.99996 9.55556 2.1944 10.0278 2.58329 10.4167C2.97218 10.8056 3.4444 11 3.99996 11ZM13 11C13.2777 11 13.5138 10.9028 13.7083 10.7083C13.9027 10.5139 14 10.2778 14 10C14 9.72222 13.9027 9.48611 13.7083 9.29167C13.5138 9.09722 13.2777 9 13 9C12.7222 9 12.4861 9.09722 12.2916 9.29167C12.0972 9.48611 12 9.72222 12 10C12 10.2778 12.0972 10.5139 12.2916 10.7083C12.4861 10.9028 12.7222 11 13 11ZM3.99996 10C3.72218 10 3.48607 9.90278 3.29163 9.70834C3.09718 9.51389 2.99996 9.27778 2.99996 9C2.99996 8.72222 3.09718 8.48611 3.29163 8.29167C3.48607 8.09722 3.72218 8 3.99996 8C4.27774 8 4.51385 8.09722 4.70829 8.29167C4.90274 8.48611 4.99996 8.72222 4.99996 9C4.99996 9.27778 4.90274 9.51389 4.70829 9.70834C4.51385 9.90278 4.27774 10 3.99996 10ZM13.3333 7.68334C13.6222 7.73889 13.8611 7.81389 14.05 7.90834C14.2388 8.00278 14.4444 8.15556 14.6666 8.36667V4.33334C14.6666 3.96667 14.5361 3.65278 14.275 3.39167C14.0138 3.13056 13.7 3 13.3333 3H9.13329L8.43329 2.26667L9.36663 1.33334L8.89996 0.866669L6.53329 3.23334L7.03329 3.7L7.96663 2.76667L8.66663 3.46667V5C8.66663 5.36667 8.53607 5.68056 8.27496 5.94167C8.01385 6.20278 7.69996 6.33334 7.33329 6.33334H5.98329C6.23885 6.52222 6.4444 6.71667 6.59996 6.91667C6.75552 7.11667 6.91107 7.36667 7.06663 7.66667H7.33329C8.06663 7.66667 8.6944 7.40556 9.21663 6.88334C9.73885 6.36111 9.99996 5.73334 9.99996 5V4.33334H13.3333V7.68334ZM10.6833 9.66667C10.75 9.36667 10.8305 9.125 10.925 8.94167C11.0194 8.75834 11.1666 8.55556 11.3666 8.33334H7.26663C7.31107 8.58889 7.33329 8.81111 7.33329 9C7.33329 9.18889 7.31107 9.41111 7.26663 9.66667H10.6833ZM13 12.3333C12.3555 12.3333 11.8055 12.1056 11.35 11.65C10.8944 11.1944 10.6666 10.6444 10.6666 10C10.6666 9.35556 10.8944 8.80556 11.35 8.35C11.8055 7.89445 12.3555 7.66667 13 7.66667C13.6444 7.66667 14.1944 7.89445 14.65 8.35C15.1055 8.80556 15.3333 9.35556 15.3333 10C15.3333 10.6444 15.1055 11.1944 14.65 11.65C14.1944 12.1056 13.6444 12.3333 13 12.3333ZM3.99996 12.3333C3.07774 12.3333 2.29163 12.0083 1.64163 11.3583C0.991626 10.7083 0.666626 9.92222 0.666626 9C0.666626 8.07778 0.991626 7.29167 1.64163 6.64167C2.29163 5.99167 3.07774 5.66667 3.99996 5.66667C4.92218 5.66667 5.70829 5.99167 6.35829 6.64167C7.00829 7.29167 7.33329 8.07778 7.33329 9C7.33329 9.92222 7.00829 10.7083 6.35829 11.3583C5.70829 12.0083 4.92218 12.3333 3.99996 12.3333Z" fill="#1C1B1F"/>
</svg>
